<?xml version="1.0" encoding="UTF-8"?>
<svg xmlns="http://www.w3.org/2000/svg" xmlns:xlink="http://www.w3.org/1999/xlink" width="px" height="32px" viewBox="0 0 33 32" version="1.1">
<defs>
<clipPath id="clip1">
  <path d="M 1.082031 0 L 31.917969 0 L 31.917969 32 L 1.082031 32 Z M 1.082031 0 "/>
</clipPath>
</defs>
<g id="surface1">
<g clip-path="url(#clip1)" clip-rule="nonzero">
<path style=" stroke:none;fill-rule:nonzero;fill:rgb(9.411765%,46.666667%,94.901961%);fill-opacity:1;" d="M 31.917969 16 C 31.917969 23.984375 26.28125 30.605469 18.90625 31.804688 L 18.90625 20.625 L 22.503906 20.625 L 23.1875 16 L 18.90625 16 L 18.90625 13 C 18.90625 11.734375 19.507812 10.5 21.421875 10.5 L 23.367188 10.5 L 23.367188 6.5625 C 23.367188 6.5625 21.601562 6.25 19.914062 6.25 C 16.394531 6.25 14.09375 8.464844 14.09375 12.476562 L 14.09375 16 L 10.175781 16 L 10.175781 20.625 L 14.09375 20.625 L 14.09375 31.804688 C 6.71875 30.605469 1.082031 23.984375 1.082031 16 C 1.082031 7.164062 7.984375 0 16.5 0 C 25.015625 0 31.917969 7.164062 31.917969 16 Z M 31.917969 16 "/>
</g>
<path style=" stroke:none;fill-rule:nonzero;fill:rgb(100%,100%,100%);fill-opacity:1;" d="M 22.503906 20.625 L 23.1875 16 L 18.90625 16 L 18.90625 12.996094 C 18.90625 11.734375 19.507812 10.5 21.421875 10.5 L 23.367188 10.5 L 23.367188 6.5625 C 23.367188 6.5625 21.601562 6.25 19.914062 6.25 C 16.394531 6.25 14.09375 8.464844 14.09375 12.476562 L 14.09375 16 L 10.175781 16 L 10.175781 20.625 L 14.09375 20.625 L 14.09375 31.804688 C 14.875 31.933594 15.679688 32 16.5 32 C 17.320312 32 18.125 31.933594 18.90625 31.804688 L 18.90625 20.625 Z M 22.503906 20.625 "/>
</g>
</svg>
