<?xml version="1.0" encoding="UTF-8"?>
<svg xmlns="http://www.w3.org/2000/svg" xmlns:xlink="http://www.w3.org/1999/xlink" width="px" height="32px" viewBox="0 0 45 32" version="1.1">
<g id="surface1">
<path style=" stroke:none;fill-rule:nonzero;fill:rgb(100%,0%,0%);fill-opacity:1;" d="M 42.996094 5.578125 C 42.5 3.71875 41.058594 2.253906 39.226562 1.753906 C 35.882812 0.824219 22.5 0.824219 22.5 0.824219 C 22.5 0.824219 9.117188 0.824219 5.773438 1.714844 C 3.976562 2.21875 2.5 3.71875 2.003906 5.578125 C 1.125 8.976562 1.125 16.023438 1.125 16.023438 C 1.125 16.023438 1.125 23.109375 2.003906 26.46875 C 2.5 28.328125 3.941406 29.796875 5.773438 30.296875 C 9.152344 31.226562 22.5 31.226562 22.5 31.226562 C 22.5 31.226562 35.882812 31.226562 39.226562 30.335938 C 41.058594 29.832031 42.5 28.367188 42.996094 26.507812 C 43.875 23.109375 43.875 16.058594 43.875 16.058594 C 43.875 16.058594 43.910156 8.976562 42.996094 5.578125 Z M 42.996094 5.578125 "/>
<path style=" stroke:none;fill-rule:nonzero;fill:rgb(100%,100%,100%);fill-opacity:1;" d="M 18.238281 22.535156 L 29.367188 16.023438 L 18.238281 9.511719 Z M 18.238281 22.535156 "/>
</g>
</svg>
