<?xml version="1.0" encoding="UTF-8"?>
<svg xmlns="http://www.w3.org/2000/svg" xmlns:xlink="http://www.w3.org/1999/xlink" width="px" height="32px" viewBox="0 0 32 32" version="1.1">
<defs>
<clipPath id="clip1">
  <path d="M 0.207031 0.207031 L 23 0.207031 L 23 31.890625 L 0.207031 31.890625 Z M 0.207031 0.207031 "/>
</clipPath>
<clipPath id="clip2">
  <path d="M 3.199219 0.207031 L 31.890625 0.207031 L 31.890625 28.800781 L 3.199219 28.800781 Z M 3.199219 0.207031 "/>
</clipPath>
<clipPath id="clip3">
  <path d="M 5.121094 23.039062 L 31.890625 23.039062 L 31.890625 31.890625 L 5.121094 31.890625 Z M 5.121094 23.039062 "/>
</clipPath>
</defs>
<g id="surface1">
<g clip-path="url(#clip1)" clip-rule="nonzero">
<path style=" stroke:none;fill-rule:nonzero;fill:rgb(0%,40.784314%,100%);fill-opacity:1;" d="M 6.109375 0.367188 C 7.195312 0.199219 8.296875 0.199219 9.394531 0.21875 L 9.300781 0.308594 C 7.863281 1.246094 6.675781 2.539062 5.816406 4.015625 C 4.09375 6.980469 3.464844 10.484375 3.609375 13.878906 C 3.75 16.648438 4.414062 19.425781 5.820312 21.832031 C 6.058594 22.261719 6.449219 22.640625 6.453125 23.164062 C 6.5 24.285156 5.945312 25.339844 5.195312 26.140625 L 5.34375 26.296875 C 6.042969 27.0625 6.792969 27.78125 7.503906 28.539062 C 8.515625 29.683594 9.671875 30.699219 10.664062 31.863281 C 9.015625 31.886719 7.34375 31.964844 5.710938 31.65625 C 3.65625 31.257812 1.835938 29.835938 0.964844 27.929688 C 0.4375 26.828125 0.28125 25.601562 0.238281 24.394531 C 0.238281 18.828125 0.238281 13.265625 0.238281 7.699219 C 0.261719 5.835938 0.753906 3.890625 2.0625 2.511719 C 3.097656 1.34375 4.566406 0.582031 6.109375 0.367188 Z M 21.148438 10.589844 L 22.46875 10.589844 C 22.460938 13.164062 22.460938 15.738281 22.46875 18.3125 C 22.039062 18.253906 21.324219 18.527344 21.160156 17.953125 C 21.132812 15.5 21.15625 13.046875 21.148438 10.589844 Z M 21.148438 10.589844 "/>
</g>
<path style=" stroke:none;fill-rule:nonzero;fill:rgb(0%,40.784314%,100%);fill-opacity:1;" d="M 7.703125 10.679688 C 9.75 10.675781 11.792969 10.664062 13.835938 10.679688 C 13.824219 11.078125 13.800781 11.515625 13.53125 11.839844 C 12.136719 13.578125 10.765625 15.339844 9.371094 17.078125 C 10.855469 17.089844 12.339844 17.082031 13.824219 17.082031 C 13.796875 17.429688 13.917969 17.835938 13.691406 18.136719 C 13.550781 18.328125 13.296875 18.3125 13.082031 18.316406 C 11.226562 18.304688 9.367188 18.324219 7.511719 18.304688 C 7.515625 17.914062 7.523438 17.476562 7.796875 17.164062 C 9.175781 15.433594 10.574219 13.714844 11.949219 11.976562 C 10.535156 11.980469 9.121094 11.96875 7.710938 11.984375 C 7.699219 11.550781 7.703125 11.113281 7.703125 10.679688 Z M 25.738281 12.386719 C 27.210938 12.054688 28.804688 13.023438 29.207031 14.46875 C 29.710938 15.976562 28.789062 17.765625 27.265625 18.226562 C 25.976562 18.683594 24.425781 18.085938 23.753906 16.894531 C 23.226562 16.015625 23.195312 14.863281 23.675781 13.953125 C 24.078125 13.15625 24.863281 12.570312 25.738281 12.386719 Z M 25.714844 13.691406 C 24.816406 14.003906 24.332031 15.097656 24.683594 15.980469 C 24.972656 16.8125 25.949219 17.324219 26.796875 17.066406 C 27.765625 16.835938 28.351562 15.703125 28.007812 14.773438 C 27.71875 13.851562 26.609375 13.324219 25.714844 13.691406 Z M 14.84375 13.457031 C 15.550781 12.578125 16.789062 12.148438 17.882812 12.460938 C 18.242188 12.550781 18.566406 12.734375 18.886719 12.921875 C 18.878906 12.828125 18.871094 12.636719 18.871094 12.539062 C 19.28125 12.539062 19.695312 12.539062 20.109375 12.535156 C 20.105469 14.460938 20.105469 16.386719 20.109375 18.316406 C 19.804688 18.304688 19.496094 18.34375 19.199219 18.28125 C 18.988281 18.195312 18.925781 17.96875 18.84375 17.78125 C 17.703125 18.664062 15.914062 18.464844 14.96875 17.386719 C 13.960938 16.34375 13.90625 14.566406 14.84375 13.457031 Z M 16.511719 13.714844 C 15.558594 14.050781 15.101562 15.269531 15.582031 16.152344 C 15.992188 17.011719 17.144531 17.371094 17.96875 16.898438 C 18.734375 16.496094 19.085938 15.5 18.761719 14.703125 C 18.441406 13.835938 17.363281 13.351562 16.511719 13.714844 Z M 16.511719 13.714844 "/>
<g clip-path="url(#clip2)" clip-rule="nonzero">
<path style=" stroke:none;fill-rule:nonzero;fill:rgb(100%,100%,100%);fill-opacity:1;" d="M 9.300781 0.308594 C 9.53125 0.242188 9.769531 0.222656 10.007812 0.214844 C 14.105469 0.230469 18.199219 0.210938 22.296875 0.21875 C 23.390625 0.234375 24.492188 0.160156 25.578125 0.328125 C 27.082031 0.441406 28.53125 1.078125 29.652344 2.085938 C 31.058594 3.425781 31.808594 5.363281 31.828125 7.289062 C 31.832031 12.71875 31.828125 18.15625 31.832031 23.582031 C 31.820312 23.613281 31.792969 23.679688 31.777344 23.710938 C 30.316406 25.34375 28.355469 26.449219 26.300781 27.164062 C 23.539062 28.109375 20.578125 28.410156 17.671875 28.191406 C 14.765625 27.941406 11.835938 27.179688 9.371094 25.574219 C 8.113281 26.136719 6.722656 26.410156 5.34375 26.296875 L 5.199219 26.140625 C 5.945312 25.339844 6.5 24.285156 6.453125 23.164062 C 6.449219 22.640625 6.058594 22.261719 5.824219 21.832031 C 4.414062 19.425781 3.75 16.648438 3.609375 13.878906 C 3.46875 10.484375 4.09375 6.980469 5.816406 4.015625 C 6.675781 2.539062 7.867188 1.246094 9.300781 0.308594 Z M 21.148438 10.589844 C 21.15625 13.046875 21.136719 15.5 21.160156 17.953125 C 21.324219 18.527344 22.039062 18.253906 22.46875 18.3125 C 22.460938 15.738281 22.460938 13.164062 22.46875 10.589844 Z M 7.707031 10.679688 C 7.703125 11.113281 7.699219 11.550781 7.710938 11.984375 C 9.121094 11.96875 10.539062 11.980469 11.949219 11.976562 C 10.574219 13.714844 9.175781 15.433594 7.796875 17.164062 C 7.523438 17.476562 7.515625 17.914062 7.511719 18.304688 C 9.371094 18.324219 11.226562 18.304688 13.082031 18.316406 C 13.296875 18.3125 13.550781 18.328125 13.691406 18.136719 C 13.917969 17.835938 13.796875 17.429688 13.824219 17.082031 C 12.339844 17.082031 10.855469 17.089844 9.371094 17.078125 C 10.765625 15.339844 12.136719 13.578125 13.53125 11.839844 C 13.800781 11.515625 13.824219 11.078125 13.835938 10.679688 C 11.792969 10.664062 9.75 10.675781 7.707031 10.679688 Z M 25.738281 12.386719 C 24.863281 12.570312 24.078125 13.15625 23.675781 13.953125 C 23.199219 14.863281 23.230469 16.015625 23.753906 16.894531 C 24.425781 18.085938 25.976562 18.683594 27.269531 18.226562 C 28.792969 17.765625 29.710938 15.976562 29.207031 14.46875 C 28.808594 13.023438 27.210938 12.054688 25.738281 12.386719 Z M 14.84375 13.457031 C 13.90625 14.566406 13.960938 16.34375 14.96875 17.386719 C 15.914062 18.464844 17.703125 18.664062 18.84375 17.78125 C 18.925781 17.96875 18.988281 18.195312 19.199219 18.28125 C 19.496094 18.34375 19.808594 18.304688 20.109375 18.316406 C 20.105469 16.386719 20.109375 14.460938 20.109375 12.535156 C 19.695312 12.539062 19.285156 12.539062 18.871094 12.539062 L 18.886719 12.921875 C 18.570312 12.734375 18.242188 12.550781 17.882812 12.460938 C 16.789062 12.148438 15.550781 12.578125 14.84375 13.457031 Z M 14.84375 13.457031 "/>
</g>
<path style=" stroke:none;fill-rule:nonzero;fill:rgb(100%,100%,100%);fill-opacity:1;" d="M 16.511719 13.714844 C 17.367188 13.351562 18.441406 13.835938 18.761719 14.703125 C 19.085938 15.5 18.734375 16.496094 17.96875 16.898438 C 17.144531 17.371094 15.992188 17.011719 15.582031 16.152344 C 15.101562 15.273438 15.5625 14.050781 16.511719 13.714844 Z M 25.714844 13.691406 C 26.609375 13.324219 27.71875 13.851562 28.007812 14.773438 C 28.351562 15.703125 27.765625 16.835938 26.796875 17.066406 C 25.949219 17.324219 24.976562 16.8125 24.683594 15.980469 C 24.332031 15.097656 24.816406 14.003906 25.714844 13.691406 Z M 25.714844 13.691406 "/>
<g clip-path="url(#clip3)" clip-rule="nonzero">
<path style=" stroke:none;fill-rule:nonzero;fill:rgb(0%,35.686275%,87.843138%);fill-opacity:1;" d="M 31.773438 23.710938 L 31.859375 23.625 C 31.898438 25.226562 31.726562 26.894531 30.941406 28.320312 C 30.027344 29.992188 28.371094 31.234375 26.503906 31.632812 C 25.460938 31.847656 24.386719 31.894531 23.324219 31.882812 C 20.046875 31.882812 16.765625 31.882812 13.488281 31.882812 C 12.550781 31.867188 11.605469 31.914062 10.664062 31.863281 C 9.671875 30.699219 8.515625 29.683594 7.503906 28.539062 C 6.792969 27.78125 6.042969 27.0625 5.34375 26.296875 C 6.722656 26.410156 8.109375 26.136719 9.371094 25.574219 C 11.835938 27.179688 14.765625 27.941406 17.671875 28.191406 C 20.578125 28.410156 23.539062 28.109375 26.300781 27.164062 C 28.351562 26.449219 30.316406 25.34375 31.773438 23.710938 Z M 31.773438 23.710938 "/>
</g>
</g>
</svg>
